#N canvas 953 0 958 980 12;
#X declare -path Abstractions;
#X obj -82 -43 notein;
#X obj -53 269 mtof;
#X obj 301 -14 declare -path Abstractions;
#X obj 219 198 adsr, f 25;
#X obj 267 104 r ADSR;
#X obj 267 128 unpack f f f f f;
#N canvas 1451 321 727 627 gate 0;
#X obj 44 25 inlet;
#X obj 44 113 outlet;
#X msg 111 150 1;
#X msg 145 151 0;
#X msg 153 78 stop;
#X obj 153 110 del 100;
#X obj 142 41 t b b;
#X obj 214 35 inlet;
#X connect 0 0 6 0;
#X connect 0 0 2 0;
#X connect 2 0 1 0;
#X connect 3 0 1 0;
#X connect 4 0 5 0;
#X connect 5 0 3 0;
#X connect 6 0 5 0;
#X connect 6 1 4 0;
#X connect 7 0 5 1;
#X restore 154 118 pd gate;
#X obj 164 84 t b f;
#X obj 216 86 / 127;
#X obj 151 250 *~;
#X obj -40 469 dac~;
#X obj 156 327 quantize;
#X obj 227 277 list 60 62 64 65 67 69 71 72;
#X obj -45 355 osc~;
#X connect 0 0 1 0;
#X connect 1 0 13 0;
#X connect 3 0 9 1;
#X connect 4 0 5 0;
#X connect 5 0 6 1;
#X connect 5 1 3 2;
#X connect 5 2 3 3;
#X connect 5 3 3 4;
#X connect 5 4 3 5;
#X connect 6 0 3 0;
#X connect 7 0 6 0;
#X connect 7 1 8 0;
#X connect 8 0 3 1;
#X connect 12 0 11 1;
#X connect 13 0 10 0;
